<svg data-v-423bf9ae="" xmlns="http://www.w3.org/2000/svg" viewBox="0 0 376 90" class="iconLeftSlogan"><!----><!----><!----><g data-v-423bf9ae="" id="c02a4208-e7d0-4f2d-a620-8797327f0b9f" fill="#AA10D7" transform="matrix(4.213483213791417,0,0,4.213483213791417,97.97593053822061,-31.137640864195028)"><path d="M4.94 9.88L4.94 9.88Q4.28 9.88 3.84 9.49L3.84 9.49L3.70 9.59L4.28 12.26L4.28 12.26Q5.07 12.12 5.64 11.94L5.64 11.94L5.64 11.94Q5.74 12.17 5.74 12.40L5.74 12.40L5.74 12.40Q5.74 12.84 5.36 13.08L5.36 13.08L5.36 13.08Q4.97 13.33 4.37 13.36L4.37 13.36L4.37 13.36Q3.82 15.40 3.47 17.47L3.47 17.47L3.47 17.47Q3.12 19.53 3.12 20.51L3.12 20.51L3.12 20.51Q3.12 21.04 3.43 21.25L3.43 21.25L3.43 21.25Q2.83 21.63 2.38 21.63L2.38 21.63L2.38 21.63Q1.95 21.63 1.70 21.34L1.70 21.34L1.70 21.34Q1.46 21.06 1.46 20.54L1.46 20.54L1.46 20.54Q1.46 19.88 1.74 18.33L1.74 18.33L1.74 18.33Q2.03 16.77 2.70 13.51L2.70 13.51L2.70 13.51Q1.99 13.62 1.44 13.80L1.44 13.80L1.44 13.80Q1.34 13.58 1.34 13.34L1.34 13.34L1.34 13.34Q1.34 12.87 1.77 12.64L1.77 12.64L1.77 12.64Q2.20 12.40 2.87 12.39L2.87 12.39L2.87 12.39Q2.76 11.19 2.76 10.42L2.76 10.42L2.76 10.42Q2.76 9.06 3.30 8.44L3.30 8.44L3.30 8.44Q3.85 7.81 4.75 7.81L4.75 7.81L4.75 7.81Q5.31 7.81 5.67 8.11L5.67 8.11L5.67 8.11Q6.03 8.41 6.03 8.88L6.03 8.88L6.03 8.88Q6.03 9.32 5.73 9.60L5.73 9.60L5.73 9.60Q5.42 9.88 4.94 9.88L4.94 9.88ZM9.70 9.24L9.70 9.24Q9.25 9.24 8.99 9.02L8.99 9.02L8.99 9.02Q8.72 8.81 8.72 8.44L8.72 8.44L8.72 8.44Q8.72 8.02 9.07 7.71L9.07 7.71L9.07 7.71Q9.42 7.39 9.97 7.39L9.97 7.39L9.97 7.39Q10.43 7.39 10.69 7.61L10.69 7.61L10.69 7.61Q10.95 7.83 10.95 8.18L10.95 8.18L10.95 8.18Q10.95 8.62 10.60 8.93L10.60 8.93L10.60 8.93Q10.25 9.24 9.70 9.24L9.70 9.24ZM8.46 19.18L8.46 19.18Q7.98 19.18 7.74 18.94L7.74 18.94L7.74 18.94Q7.50 18.70 7.50 18.19L7.50 18.19L7.50 18.19Q7.50 17.61 7.78 16.14L7.78 16.14L7.78 16.14Q8.05 14.67 8.71 11.72L8.71 11.72L8.09 11.02L8.09 11.02Q8.43 10.75 8.87 10.59L8.87 10.59L8.87 10.59Q9.31 10.43 9.67 10.43L9.67 10.43L9.67 10.43Q10.09 10.43 10.27 10.61L10.27 10.61L10.27 10.61Q10.44 10.78 10.44 11.20L10.44 11.20L10.44 11.20Q10.44 11.31 10.18 12.40L10.18 12.40L10.18 12.40Q9.74 14.18 9.46 15.62L9.46 15.62L9.46 15.62Q9.17 17.07 9.17 18.06L9.17 18.06L9.17 18.06Q9.17 18.59 9.42 18.80L9.42 18.80L9.42 18.80Q8.96 19.18 8.46 19.18L8.46 19.18ZM13.90 19.18L13.90 19.18Q13.41 19.18 13.18 18.94L13.18 18.94L13.18 18.94Q12.95 18.70 12.95 18.19L12.95 18.19L12.95 18.19Q12.95 17.57 13.32 15.65L13.32 15.65L13.32 15.65Q13.69 13.72 14.17 11.83L14.17 11.83L13.54 11.13L13.54 11.13Q13.87 10.84 14.33 10.65L14.33 10.65L14.33 10.65Q14.78 10.47 15.15 10.47L15.15 10.47L15.15 10.47Q15.57 10.47 15.74 10.64L15.74 10.64L15.74 10.64Q15.90 10.81 15.90 11.24L15.90 11.24L15.90 11.24Q15.90 11.61 15.79 12.07L15.79 12.07L15.79 12.07Q15.67 12.53 15.47 12.92L15.47 12.92L15.61 12.99L15.61 12.99Q17.02 10.43 19.28 10.43L19.28 10.43L19.28 10.43Q20.19 10.43 20.63 10.89L20.63 10.89L20.63 10.89Q21.07 11.34 21.07 12.29L21.07 12.29L21.07 12.29Q21.07 12.85 20.95 13.45L20.95 13.45L20.95 13.45Q20.83 14.06 20.61 14.97L20.61 14.97L20.61 14.97Q20.34 16.03 20.22 16.71L20.22 16.71L20.22 16.71Q20.09 17.39 20.09 18.06L20.09 18.06L20.09 18.06Q20.09 18.56 20.27 18.79L20.27 18.79L20.27 18.79Q19.85 19.18 19.38 19.18L19.38 19.18L19.38 19.18Q18.90 19.18 18.67 18.94L18.67 18.94L18.67 18.94Q18.44 18.70 18.44 18.19L18.44 18.19L18.44 18.19Q18.44 17.65 18.56 16.99L18.56 16.99L18.56 16.99Q18.68 16.32 18.90 15.26L18.90 15.26L18.90 15.26Q19.11 14.38 19.21 13.78L19.21 13.78L19.21 13.78Q19.32 13.19 19.32 12.75L19.32 12.75L19.32 12.75Q19.32 11.62 18.47 11.62L18.47 11.62L18.47 11.62Q17.47 11.62 16.58 12.57L16.58 12.57L16.58 12.57Q15.69 13.51 15.15 15.01L15.15 15.01L15.15 15.01Q14.62 16.51 14.62 18.06L14.62 18.06L14.62 18.06Q14.62 18.58 14.78 18.79L14.78 18.79L14.78 18.79Q14.36 19.18 13.90 19.18L13.90 19.18ZM30.35 17.93L30.35 17.93Q30.35 18.19 30.43 18.42L30.43 18.42L30.43 18.42Q30.51 18.66 30.65 18.79L30.65 18.79L30.65 18.79Q30.18 19.18 29.60 19.18L29.60 19.18L29.60 19.18Q28.71 19.18 28.71 18.07L28.71 18.07L28.71 18.07Q28.71 17.85 28.78 17.19L28.78 17.19L28.63 17.12L28.63 17.12Q28.13 18.10 27.36 18.64L27.36 18.64L27.36 18.64Q26.60 19.18 25.70 19.18L25.70 19.18L25.70 19.18Q24.95 19.18 24.37 18.77L24.37 18.77L24.37 18.77Q23.79 18.37 23.47 17.62L23.47 17.62L23.47 17.62Q23.16 16.87 23.16 15.89L23.16 15.89L23.16 15.89Q23.16 14.48 23.87 13.31L23.87 13.31L23.87 13.31Q24.58 12.14 25.82 11.46L25.82 11.46L25.82 11.46Q27.05 10.78 28.53 10.78L28.53 10.78L28.53 10.78Q29.18 10.78 29.76 10.88L29.76 10.88L30.04 9.28L29.43 8.58L29.43 8.58Q29.76 8.30 30.21 8.14L30.21 8.14L30.21 8.14Q30.66 7.98 31.04 7.98L31.04 7.98L31.04 7.98Q31.43 7.98 31.60 8.16L31.60 8.16L31.60 8.16Q31.77 8.33 31.77 8.75L31.77 8.75L31.77 8.75Q31.77 9.03 31.65 9.62L31.65 9.62L31.65 9.62Q31.53 10.21 31.37 10.91L31.37 10.91L31.37 10.91Q30.91 12.95 30.63 14.60L30.63 14.60L30.63 14.60Q30.35 16.24 30.35 17.93L30.35 17.93ZM29.04 15.41L29.04 15.41Q29.30 13.54 29.65 11.56L29.65 11.56L29.65 11.56Q28.20 11.62 27.12 12.18L27.12 12.18L27.12 12.18Q26.04 12.74 25.46 13.69L25.46 13.69L25.46 13.69Q24.88 14.64 24.88 15.85L24.88 15.85L24.88 15.85Q24.88 16.80 25.27 17.33L25.27 17.33L25.27 17.33Q25.66 17.86 26.38 17.86L26.38 17.86L26.38 17.86Q27.15 17.86 27.89 17.18L27.89 17.18L27.89 17.18Q28.63 16.49 29.04 15.33L29.04 15.33L29.04 15.41ZM45.33 10.43L45.33 10.43Q46.05 10.43 46.05 11.27L46.05 11.27L46.05 11.27Q46.05 13.54 45.04 15.96L45.04 15.96L45.04 15.96Q44.03 18.38 42.20 20.01L42.20 20.01L42.20 20.01Q40.38 21.63 38.04 21.63L38.04 21.63L38.04 21.63Q37.16 21.63 36.72 21.32L36.72 21.32L36.72 21.32Q36.29 21.01 36.29 20.48L36.29 20.48L36.29 20.48Q36.29 20.29 36.37 20.07L36.37 20.07L36.37 20.07Q36.46 19.85 36.57 19.68L36.57 19.68L36.57 19.68Q36.86 20.02 37.25 20.23L37.25 20.23L37.25 20.23Q37.65 20.44 38.36 20.44L38.36 20.44L38.36 20.44Q38.99 20.44 39.80 20.13L39.80 20.13L39.80 20.13Q40.60 19.81 41.37 19.17L41.37 19.17L41.37 19.17Q40.35 19.08 39.85 18.44L39.85 18.44L39.85 18.44Q39.35 17.79 39.23 16.92L39.23 16.92L39.23 16.92Q39.10 16.04 39.06 14.60L39.06 14.60L39.06 14.60Q39.03 13.54 38.98 12.91L38.98 12.91L38.98 12.91Q38.92 12.28 38.74 11.70L38.74 11.70L38.74 11.70Q38.56 11.13 38.16 10.78L38.16 10.78L38.16 10.78Q38.61 10.43 39.13 10.43L39.13 10.43L39.13 10.43Q39.87 10.43 40.22 10.96L40.22 10.96L40.22 10.96Q40.56 11.48 40.64 12.24L40.64 12.24L40.64 12.24Q40.71 13.01 40.71 14.32L40.71 14.32L40.71 14.32Q40.73 15.60 40.80 16.35L40.80 16.35L40.80 16.35Q40.87 17.11 41.16 17.71L41.16 17.71L41.16 17.71Q41.45 18.31 42.08 18.48L42.08 18.48L42.08 18.48Q43.13 17.36 43.76 15.63L43.76 15.63L43.76 15.63Q44.38 13.90 44.38 11.55L44.38 11.55L44.38 11.55Q44.38 10.98 44.35 10.78L44.35 10.78L44.35 10.78Q44.67 10.58 44.88 10.51L44.88 10.51L44.88 10.51Q45.09 10.43 45.33 10.43L45.33 10.43ZM50.92 19.18L50.92 19.18Q49.91 19.18 49.15 18.73L49.15 18.73L49.15 18.73Q48.38 18.27 47.97 17.44L47.97 17.44L47.97 17.44Q47.56 16.60 47.56 15.50L47.56 15.50L47.56 15.50Q47.56 14.01 48.18 12.87L48.18 12.87L48.18 12.87Q48.80 11.72 49.92 11.07L49.92 11.07L49.92 11.07Q51.04 10.43 52.46 10.43L52.46 10.43L52.46 10.43Q53.05 10.43 53.54 10.54L53.54 10.54L53.54 10.54Q53.69 10.77 53.72 11.20L53.72 11.20L53.72 11.20Q52.32 11.20 51.32 11.76L51.32 11.76L51.32 11.76Q50.33 12.32 49.81 13.32L49.81 13.32L49.81 13.32Q49.29 14.32 49.29 15.60L49.29 15.60L49.29 15.60Q49.29 16.84 49.76 17.54L49.76 17.54L49.76 17.54Q50.22 18.24 51.07 18.24L51.07 18.24L51.07 18.24Q51.90 18.24 52.56 17.78L52.56 17.78L52.56 17.78Q53.23 17.32 53.66 16.46L53.66 16.46L53.66 16.46Q54.08 15.61 54.19 14.48L54.19 14.48L54.19 14.48Q53.62 14.11 53.36 13.68L53.36 13.68L53.36 13.68Q53.10 13.24 53.10 12.66L53.10 12.66L53.10 12.66Q53.10 12.12 53.42 11.77L53.42 11.77L53.42 11.77Q53.75 11.41 54.22 11.41L54.22 11.41L54.22 11.41Q54.87 11.41 55.23 11.98L55.23 11.98L55.23 11.98Q55.59 12.56 55.59 13.58L55.59 13.58L55.59 13.58Q55.59 15.12 54.97 16.40L54.97 16.40L54.97 16.40Q54.35 17.68 53.28 18.43L53.28 18.43L53.28 18.43Q52.21 19.18 50.92 19.18L50.92 19.18ZM64.64 18.06L64.64 18.06Q64.64 18.59 64.88 18.80L64.88 18.80L64.88 18.80Q64.46 19.18 63.91 19.18L63.91 19.18L63.91 19.18Q63.43 19.18 63.20 18.86L63.20 18.86L63.20 18.86Q62.97 18.54 62.97 17.85L62.97 17.85L62.97 17.81L62.83 17.74L62.83 17.74Q62.38 18.37 61.63 18.77L61.63 18.77L61.63 18.77Q60.87 19.18 60.16 19.18L60.16 19.18L60.16 19.18Q59.01 19.18 58.46 18.63L58.46 18.63L58.46 18.63Q57.92 18.07 57.92 16.91L57.92 16.91L57.92 16.91Q57.92 16.34 58.01 15.74L58.01 15.74L58.01 15.74Q58.10 15.13 58.30 14.14L58.30 14.14L58.30 14.14Q58.45 13.37 58.53 12.84L58.53 12.84L58.53 12.84Q58.62 12.31 58.62 11.89L58.62 11.89L58.62 11.89Q58.62 11.27 58.46 10.81L58.46 10.81L58.46 10.81Q58.74 10.64 59.05 10.54L59.05 10.54L59.05 10.54Q59.36 10.43 59.56 10.43L59.56 10.43L59.56 10.43Q59.96 10.43 60.15 10.65L60.15 10.65L60.15 10.65Q60.34 10.86 60.34 11.34L60.34 11.34L60.34 11.34Q60.34 11.69 60.23 12.32L60.23 12.32L60.23 12.32Q60.12 12.95 59.89 14.00L59.89 14.00L59.89 14.00Q59.74 14.77 59.60 15.49L59.60 15.49L59.60 15.49Q59.47 16.21 59.47 16.53L59.47 16.53L59.47 16.53Q59.47 17.33 59.81 17.74L59.81 17.74L59.81 17.74Q60.14 18.14 60.80 18.14L60.80 18.14L60.80 18.14Q61.49 18.14 62.10 17.71L62.10 17.71L62.10 17.71Q62.71 17.28 63.13 16.49L63.13 16.49L63.13 16.49Q63.45 14.73 64.12 11.86L64.12 11.86L63.55 11.02L63.55 11.02Q63.83 10.77 64.29 10.60L64.29 10.60L64.29 10.60Q64.75 10.43 65.13 10.43L65.13 10.43L65.13 10.43Q65.55 10.43 65.72 10.61L65.72 10.61L65.72 10.61Q65.90 10.78 65.90 11.20L65.90 11.20L65.90 11.20Q65.90 11.31 65.63 12.40L65.63 12.40L65.63 12.40Q65.18 14.32 64.91 15.69L64.91 15.69L64.91 15.69Q64.64 17.07 64.64 18.06L64.64 18.06Z"></path></g><!----><g data-v-423bf9ae="" id="243604b9-0ae8-46eb-b609-925972807335" transform="matrix(3,0,0,3,-2.8110008239746094,0)" stroke="none" fill="#E98C00"><g xmlns="http://www.w3.org/2000/svg" xmlns:xlink="http://www.w3.org/1999/xlink" transform="translate(-30 -500)"><circle cx="37.5" cy="503.5" r="2.5"></circle><circle cx="50.5" cy="504.5" r="2.5"></circle><path d="M56 507h-1c0-3.869-1.598-6-4.5-6s-4.5 2.131-4.5 6h-1c0-6.318 3.847-7 5.5-7s5.5.682 5.5 7zM37 508h1v1h-1zM37 510h1v1h-1z"></path><path d="M57.126 518.486l1.748-.972L53.588 508h-6.176L44 514.141V507h-5v5h-3v-5h-5v11h2v-9h1v21h3v-13h1v13h3v-21h1v9h1l.874.486L48 511h5z"></path><path d="M53 512h-5v1l-5 15h15l-5-15zM48 529h2v1h-2zM51 529h2v1h-2z"></path></g></g><!----><g data-v-423bf9ae="" id="c8fda5cd-8257-44b2-b86c-b68d1eb8cbad" fill="#261624" transform="matrix(0.771312069238618,0,0,0.771312069238618,102.40332558121001,56.351693040393236)"><path d="M7.28 9.34L7.28 9.34L7.28 9.34Q7.73 9.34 7.99 9.59L7.99 9.59L7.99 9.59Q8.25 9.84 8.25 10.29L8.25 10.29L8.25 10.29Q8.25 10.40 8.23 10.52L8.23 10.52L8.23 10.52Q8.22 10.64 8.18 10.72L8.18 10.72L8.18 10.72Q7.99 10.70 7.77 10.68L7.77 10.68L7.77 10.68Q7.55 10.65 7.24 10.65L7.24 10.65L7.24 10.65Q6.61 10.65 5.98 10.77L5.98 10.77L5.98 10.77Q5.35 10.88 4.77 10.95L4.77 10.95L4.77 10.95Q4.14 12.43 3.74 13.73L3.74 13.73L3.74 13.73Q3.33 15.04 3.11 16.31L3.11 16.31L3.11 16.31Q2.63 16.20 2.27 15.90L2.27 15.90L2.27 15.90Q1.90 15.61 1.58 15.08L1.58 15.08L1.58 15.08Q1.68 14.85 1.82 14.54L1.82 14.54L1.82 14.54Q1.96 14.22 2.16 13.74L2.16 13.74L2.16 13.74Q2.35 13.26 2.63 12.56L2.63 12.56L2.63 12.56Q2.90 11.87 3.28 10.91L3.28 10.91L3.28 10.91Q2.69 10.71 2.51 10.22L2.51 10.22L2.51 10.22Q2.58 10.15 2.90 10.06L2.90 10.06L2.90 10.06Q3.22 9.97 3.68 9.86L3.68 9.86L3.68 9.86Q3.89 9.31 4.05 8.88L4.05 8.88L4.05 8.88Q4.20 8.46 4.33 8.07L4.33 8.07L4.33 8.07Q4.45 7.69 4.56 7.32L4.56 7.32L4.56 7.32Q4.66 6.94 4.75 6.52L4.75 6.52L4.68 6.52L4.68 6.52Q4.14 6.52 3.81 6.27L3.81 6.27L3.81 6.27Q3.49 6.02 3.49 5.61L3.49 5.61L3.49 5.61Q3.49 5.50 3.52 5.35L3.52 5.35L3.52 5.35Q3.56 5.19 3.61 5.08L3.61 5.08L3.61 5.08Q3.88 5.12 4.14 5.14L4.14 5.14L4.14 5.14Q4.40 5.15 4.82 5.15L4.82 5.15L4.82 5.15Q5.70 5.15 6.47 5.10L6.47 5.10L6.47 5.10Q7.24 5.05 7.86 5.00L7.86 5.00L7.86 5.00Q8.48 4.94 8.93 4.89L8.93 4.89L8.93 4.89Q9.38 4.84 9.62 4.84L9.62 4.84L9.62 4.84Q9.94 4.84 10.19 5.18L10.19 5.18L10.19 5.18Q10.44 5.52 10.58 6.13L10.58 6.13L10.58 6.13Q10.14 6.09 9.86 6.08L9.86 6.08L9.86 6.08Q9.59 6.06 9.38 6.06L9.38 6.06L9.38 6.06Q8.67 6.06 8.07 6.13L8.07 6.13L8.07 6.13Q7.48 6.19 6.94 6.27L6.94 6.27L6.94 6.27Q6.86 6.40 6.75 6.59L6.75 6.59L6.75 6.59Q6.65 6.79 6.48 7.15L6.48 7.15L6.48 7.15Q6.31 7.50 6.05 8.08L6.05 8.08L6.05 8.08Q5.80 8.65 5.40 9.53L5.40 9.53L5.40 9.53Q5.95 9.45 6.45 9.39L6.45 9.39L6.45 9.39Q6.94 9.34 7.28 9.34ZM16.55 14.38L16.55 14.38L16.55 14.38Q16.55 13.87 16.71 13.07L16.71 13.07L16.71 13.07Q16.87 12.26 17.13 11.33L17.13 11.33L17.13 11.33Q17.39 10.40 17.72 9.43L17.72 9.43L17.72 9.43Q18.06 8.46 18.41 7.60L18.41 7.60L18.41 7.60Q18.76 6.75 19.10 6.10L19.10 6.10L19.10 6.10Q19.43 5.46 19.70 5.18L19.70 5.18L19.70 5.18Q19.84 5.19 20.07 5.29L20.07 5.29L20.07 5.29Q20.30 5.38 20.54 5.50L20.54 5.50L20.54 5.50Q20.78 5.63 20.97 5.78L20.97 5.78L20.97 5.78Q21.17 5.92 21.22 6.05L21.22 6.05L21.22 6.05Q20.82 6.41 20.42 7.15L20.42 7.15L20.42 7.15Q20.02 7.88 19.65 8.82L19.65 8.82L19.65 8.82Q19.28 9.76 18.96 10.80L18.96 10.80L18.96 10.80Q18.63 11.84 18.40 12.82L18.40 12.82L18.40 12.82Q18.16 13.80 18.02 14.64L18.02 14.64L18.02 14.64Q17.89 15.48 17.89 16.00L17.89 16.00L17.89 16.00Q17.89 16.24 17.93 16.30L17.93 16.30L17.93 16.30Q17.63 16.28 17.49 16.19L17.49 16.19L17.49 16.19Q17.35 16.10 17.27 16.00L17.27 16.00L17.27 16.00Q17.19 15.89 17.13 15.79L17.13 15.79L17.13 15.79Q17.07 15.68 16.94 15.62L16.94 15.62L16.94 15.62Q16.84 15.58 16.77 15.43L16.77 15.43L16.77 15.43Q16.70 15.27 16.65 15.09L16.65 15.09L16.65 15.09Q16.60 14.90 16.58 14.70L16.58 14.70L16.58 14.70Q16.55 14.50 16.55 14.38ZM28.78 16.24L28.78 16.24L28.78 16.24Q27.99 16.00 27.71 15.79L27.71 15.79L27.71 15.79Q27.43 15.57 27.43 15.19L27.43 15.19L27.43 15.19Q27.43 14.77 27.62 14.01L27.62 14.01L27.62 14.01Q27.82 13.24 28.13 12.31L28.13 12.31L28.13 12.31Q28.45 11.37 28.85 10.35L28.85 10.35L28.85 10.35Q29.26 9.32 29.68 8.39L29.68 8.39L29.68 8.39Q30.10 7.45 30.50 6.67L30.50 6.67L30.50 6.67Q30.90 5.89 31.21 5.46L31.21 5.46L31.11 4.87L31.11 4.87Q31.30 4.87 31.65 4.97L31.65 4.97L31.65 4.97Q32.00 5.07 32.36 5.21L32.36 5.21L32.36 5.21Q32.72 5.35 32.99 5.49L32.99 5.49L32.99 5.49Q33.26 5.64 33.29 5.74L33.29 5.74L33.29 5.74Q33.22 6.08 33.18 6.76L33.18 6.76L33.18 6.76Q33.14 7.43 33.14 8.20L33.14 8.20L33.14 8.20Q33.14 9.73 33.26 11.19L33.26 11.19L33.26 11.19Q33.38 12.66 33.81 14.17L33.81 14.17L33.81 14.17Q34.03 13.05 34.29 11.94L34.29 11.94L34.29 11.94Q34.55 10.82 34.83 9.81L34.83 9.81L34.83 9.81Q35.11 8.79 35.39 7.92L35.39 7.92L35.39 7.92Q35.67 7.06 35.93 6.40L35.93 6.40L35.93 6.40Q36.19 5.75 36.41 5.38L36.41 5.38L36.41 5.38Q36.64 5.01 36.82 4.98L36.82 4.98L36.82 4.98Q36.97 5.01 37.16 5.10L37.16 5.10L37.16 5.10Q37.34 5.19 37.51 5.32L37.51 5.32L37.51 5.32Q37.67 5.45 37.81 5.60L37.81 5.60L37.81 5.60Q37.95 5.75 38.04 5.91L38.04 5.91L38.04 5.91Q37.59 6.09 37.15 6.76L37.15 6.76L37.15 6.76Q36.71 7.43 36.31 8.39L36.31 8.39L36.31 8.39Q35.91 9.35 35.57 10.47L35.57 10.47L35.57 10.47Q35.22 11.59 34.97 12.68L34.97 12.68L34.97 12.68Q34.71 13.76 34.56 14.69L34.56 14.69L34.56 14.69Q34.41 15.61 34.40 16.17L34.40 16.17L34.40 16.17Q34.40 16.20 34.41 16.21L34.41 16.21L34.41 16.21Q34.37 16.23 34.32 16.23L34.32 16.23L34.32 16.23Q34.27 16.23 34.23 16.23L34.23 16.23L34.23 16.23Q33.59 16.23 33.09 16.07L33.09 16.07L33.09 16.07Q32.59 15.90 32.44 15.61L32.44 15.61L32.44 15.61Q32.14 14.43 31.95 13.34L31.95 13.34L31.95 13.34Q31.75 12.25 31.62 11.16L31.62 11.16L31.62 11.16Q31.49 10.07 31.41 8.95L31.41 8.95L31.41 8.95Q31.33 7.84 31.29 6.62L31.29 6.62L31.29 6.62Q31.02 7.04 30.73 7.72L30.73 7.72L30.73 7.72Q30.44 8.40 30.16 9.21L30.16 9.21L30.16 9.21Q29.88 10.02 29.62 10.92L29.62 10.92L29.62 10.92Q29.36 11.82 29.16 12.67L29.16 12.67L29.16 12.67Q28.97 13.52 28.85 14.29L28.85 14.29L28.85 14.29Q28.74 15.05 28.74 15.61L28.74 15.61L28.74 15.61Q28.74 15.90 28.75 16.03L28.75 16.03L28.75 16.03Q28.76 16.16 28.78 16.24ZM45.04 14.45L45.04 14.45L45.04 14.45Q45.25 13.99 45.54 13.26L45.54 13.26L45.54 13.26Q45.84 12.53 46.16 11.68L46.16 11.68L46.16 11.68Q46.48 10.84 46.82 9.95L46.82 9.95L46.82 9.95Q47.15 9.06 47.45 8.26L47.45 8.26L47.45 8.26Q47.74 7.46 47.96 6.83L47.96 6.83L47.96 6.83Q48.17 6.20 48.27 5.87L48.27 5.87L48.27 5.87Q47.39 6.23 46.76 6.97L46.76 6.97L46.76 6.97Q46.13 7.71 45.81 8.83L45.81 8.83L45.81 8.83Q45.49 8.72 45.22 8.43L45.22 8.43L45.22 8.43Q44.95 8.15 44.87 7.71L44.87 7.71L44.87 7.71Q45.01 7.07 45.40 6.54L45.40 6.54L45.40 6.54Q45.78 6.01 46.37 5.63L46.37 5.63L46.37 5.63Q46.96 5.25 47.73 5.05L47.73 5.05L47.73 5.05Q48.50 4.84 49.38 4.84L49.38 4.84L49.38 4.84Q50.50 4.84 51.44 5.17L51.44 5.17L51.44 5.17Q52.37 5.50 53.05 6.09L53.05 6.09L53.05 6.09Q53.72 6.68 54.10 7.50L54.10 7.50L54.10 7.50Q54.47 8.33 54.47 9.34L54.47 9.34L54.47 9.34Q54.47 10.71 53.97 11.96L53.97 11.96L53.97 11.96Q53.47 13.20 52.61 14.15L52.61 14.15L52.61 14.15Q51.74 15.11 50.61 15.67L50.61 15.67L50.61 15.67Q49.48 16.24 48.23 16.24L48.23 16.24L48.23 16.24Q47.08 16.24 46.26 15.79L46.26 15.79L46.26 15.79Q45.44 15.33 45.04 14.45ZM49.98 5.54L49.98 5.54L49.98 5.54Q49.28 5.54 48.65 5.74L48.65 5.74L48.65 5.74Q49.27 5.96 49.67 6.21L49.67 6.21L49.67 6.21Q50.08 6.45 50.23 6.59L50.23 6.59L50.23 6.59Q50.12 6.75 49.90 7.14L49.90 7.14L49.90 7.14Q49.69 7.53 49.40 8.09L49.40 8.09L49.40 8.09Q49.11 8.65 48.79 9.32L48.79 9.32L48.79 9.32Q48.47 9.98 48.16 10.68L48.16 10.68L48.16 10.68Q47.36 12.46 47.01 13.48L47.01 13.48L47.01 13.48Q46.65 14.50 46.65 14.90L46.65 14.90L46.65 14.90Q46.84 14.97 47.12 14.99L47.12 14.99L47.12 14.99Q47.40 15.02 47.73 15.02L47.73 15.02L47.73 15.02Q48.86 15.02 49.88 14.50L49.88 14.50L49.88 14.50Q50.89 13.97 51.65 13.09L51.65 13.09L51.65 13.09Q52.42 12.21 52.86 11.04L52.86 11.04L52.86 11.04Q53.30 9.87 53.30 8.58L53.30 8.58L53.30 8.58Q53.30 7.14 52.40 6.34L52.40 6.34L52.40 6.34Q51.51 5.54 49.98 5.54ZM77.49 10.35L77.49 10.35L77.49 10.35Q78.54 9.20 79.37 7.91L79.37 7.91L79.37 7.91Q80.21 6.62 80.92 5.01L80.92 5.01L80.92 5.01Q81.28 5.05 81.62 5.21L81.62 5.21L81.62 5.21Q81.96 5.36 82.15 5.56L82.15 5.56L82.15 5.56Q81.38 6.48 80.76 7.24L80.76 7.24L80.76 7.24Q80.14 7.99 79.62 8.66L79.62 8.66L79.62 8.66Q79.10 9.32 78.66 9.93L78.66 9.93L78.66 9.93Q78.22 10.54 77.80 11.16L77.80 11.16L77.80 11.16Q77.59 11.87 77.41 12.60L77.41 12.60L77.41 12.60Q77.22 13.33 77.08 13.99L77.08 13.99L77.08 13.99Q76.94 14.66 76.87 15.22L76.87 15.22L76.87 15.22Q76.79 15.79 76.79 16.20L76.79 16.20L76.79 16.20Q76.64 16.20 76.30 16.14L76.30 16.14L76.30 16.14Q75.96 16.07 75.61 15.99L75.61 15.99L75.61 15.99Q75.26 15.90 74.98 15.82L74.98 15.82L74.98 15.82Q74.69 15.74 74.63 15.68L74.63 15.68L74.63 15.68Q74.86 15.30 75.08 14.75L75.08 14.75L75.08 14.75Q75.29 14.20 75.50 13.59L75.50 13.59L75.50 13.59Q75.71 12.98 75.91 12.36L75.91 12.36L75.91 12.36Q76.10 11.73 76.27 11.20L76.27 11.20L76.27 11.20Q75.92 10.11 75.59 9.15L75.59 9.15L75.59 9.15Q75.26 8.19 74.96 7.41L74.96 7.41L74.96 7.41Q74.65 6.64 74.37 6.08L74.37 6.08L74.37 6.08Q74.09 5.52 73.84 5.22L73.84 5.22L73.84 5.22Q73.98 5.17 74.26 5.11L74.26 5.11L74.26 5.11Q74.55 5.05 74.89 5.00L74.89 5.00L74.89 5.00Q75.24 4.94 75.59 4.91L75.59 4.91L75.59 4.91Q75.95 4.87 76.23 4.86L76.23 4.86L76.23 4.86Q76.23 5.21 76.29 5.71L76.29 5.71L76.29 5.71Q76.36 6.22 76.46 6.79L76.46 6.79L76.46 6.79Q76.57 7.36 76.71 7.95L76.71 7.95L76.71 7.95Q76.85 8.54 76.99 9.03L76.99 9.03L76.99 9.03Q77.13 9.52 77.26 9.88L77.26 9.88L77.26 9.88Q77.39 10.23 77.49 10.35ZM94.14 4.98L94.14 4.98L94.14 4.98Q94.40 5.10 94.68 5.27L94.68 5.27L94.68 5.27Q94.96 5.45 95.20 5.63L95.20 5.63L95.20 5.63Q95.44 5.81 95.60 5.98L95.60 5.98L95.60 5.98Q95.76 6.16 95.77 6.27L95.77 6.27L95.77 6.27Q95.54 6.22 95.30 6.20L95.30 6.20L95.30 6.20Q95.06 6.17 94.86 6.17L94.86 6.17L94.86 6.17Q94.23 6.17 93.61 6.48L93.61 6.48L93.61 6.48Q92.99 6.79 92.43 7.32L92.43 7.32L92.43 7.32Q91.87 7.85 91.39 8.57L91.39 8.57L91.39 8.57Q90.92 9.28 90.57 10.09L90.57 10.09L90.57 10.09Q90.23 10.91 90.03 11.77L90.03 11.77L90.03 11.77Q89.84 12.64 89.84 13.48L89.84 13.48L89.84 13.48Q89.84 14.57 90.20 15.11L90.20 15.11L90.20 15.11Q90.57 15.64 91.27 15.64L91.27 15.64L91.27 15.64Q91.60 15.64 91.99 15.51L91.99 15.51L91.99 15.51Q92.39 15.37 92.79 15.13L92.79 15.13L92.79 15.13Q93.20 14.90 93.59 14.56L93.59 14.56L93.59 14.56Q93.98 14.22 94.32 13.82L94.32 13.82L94.32 13.82Q94.81 13.23 95.20 12.48L95.20 12.48L95.20 12.48Q95.59 11.73 95.86 10.89L95.86 10.89L95.86 10.89Q96.14 10.05 96.28 9.16L96.28 9.16L96.28 9.16Q96.43 8.27 96.43 7.42L96.43 7.42L96.43 7.42Q96.43 7.08 96.42 6.85L96.42 6.85L96.42 6.85Q96.40 6.62 96.38 6.46L96.38 6.46L96.38 6.46Q96.36 6.30 96.35 6.20L96.35 6.20L96.35 6.20Q96.33 6.10 96.32 6.03L96.32 6.03L96.32 6.03Q96.49 6.12 96.69 6.24L96.69 6.24L96.69 6.24Q96.89 6.36 97.07 6.59L97.07 6.59L97.07 6.59Q97.24 6.82 97.36 7.20L97.36 7.20L97.36 7.20Q97.48 7.57 97.48 8.18L97.48 8.18L97.48 8.18Q97.48 9.16 97.25 10.10L97.25 10.10L97.25 10.10Q97.02 11.05 96.61 11.90L96.61 11.90L96.61 11.90Q96.19 12.75 95.63 13.50L95.63 13.50L95.63 13.50Q95.07 14.24 94.43 14.80L94.43 14.80L94.43 14.80Q93.59 15.54 92.64 15.95L92.64 15.95L92.64 15.95Q91.69 16.35 90.80 16.35L90.80 16.35L90.80 16.35Q89.52 16.35 88.84 15.53L88.84 15.53L88.84 15.53Q88.16 14.71 88.16 13.12L88.16 13.12L88.16 13.12Q88.16 12.26 88.35 11.31L88.35 11.31L88.35 11.31Q88.54 10.36 88.88 9.44L88.88 9.44L88.88 9.44Q89.22 8.51 89.70 7.68L89.70 7.68L89.70 7.68Q90.17 6.85 90.74 6.21L90.74 6.21L90.74 6.21Q91.31 5.57 91.96 5.19L91.96 5.19L91.96 5.19Q92.61 4.82 93.30 4.82L93.30 4.82L93.30 4.82Q93.52 4.82 93.72 4.85L93.72 4.85L93.72 4.85Q93.91 4.89 94.14 4.98ZM110.18 5.75L110.18 5.75L110.18 5.75Q109.56 6.58 109.06 7.57L109.06 7.57L109.06 7.57Q108.56 8.57 108.20 9.61L108.20 9.61L108.20 9.61Q107.84 10.65 107.65 11.67L107.65 11.67L107.65 11.67Q107.46 12.68 107.46 13.57L107.46 13.57L107.46 13.57Q107.46 14.66 107.79 15.15L107.79 15.15L107.79 15.15Q108.11 15.64 108.89 15.64L108.89 15.64L108.89 15.64Q109.80 15.64 110.49 15.00L110.49 15.00L110.49 15.00Q111.17 14.36 111.78 13.24L111.78 13.24L111.78 13.24Q112.17 12.52 112.45 11.65L112.45 11.65L112.45 11.65Q112.73 10.78 112.90 9.86L112.90 9.86L112.90 9.86Q113.08 8.95 113.16 8.02L113.16 8.02L113.16 8.02Q113.25 7.08 113.25 6.23L113.25 6.23L113.25 6.23Q113.25 5.68 113.23 5.43L113.23 5.43L113.23 5.43Q113.22 5.18 113.19 5.03L113.19 5.03L113.19 5.03Q113.23 5.03 113.40 5.05L113.40 5.05L113.40 5.05Q113.57 5.08 113.78 5.12L113.78 5.12L113.78 5.12Q114.00 5.17 114.22 5.24L114.22 5.24L114.22 5.24Q114.44 5.31 114.59 5.39L114.59 5.39L114.59 5.39Q114.52 6.45 114.33 7.59L114.33 7.59L114.33 7.59Q114.14 8.72 113.83 9.83L113.83 9.83L113.83 9.83Q113.53 10.93 113.12 11.96L113.12 11.96L113.12 11.96Q112.71 12.98 112.21 13.79L112.21 13.79L112.21 13.79Q111.47 14.99 110.54 15.67L110.54 15.67L110.54 15.67Q109.62 16.35 108.36 16.35L108.36 16.35L108.36 16.35Q107.07 16.35 106.36 15.60L106.36 15.60L106.36 15.60Q105.64 14.85 105.64 13.33L105.64 13.33L105.64 13.33Q105.64 12.45 105.84 11.33L105.84 11.33L105.84 11.33Q106.04 10.22 106.36 9.07L106.36 9.07L106.36 9.07Q106.69 7.91 107.13 6.81L107.13 6.81L107.13 6.81Q107.56 5.71 108.04 4.84L108.04 4.84L108.04 4.84Q108.28 4.86 108.60 4.94L108.60 4.94L108.60 4.94Q108.92 5.03 109.23 5.16L109.23 5.16L109.23 5.16Q109.54 5.29 109.79 5.45L109.79 5.45L109.79 5.45Q110.05 5.61 110.18 5.75ZM131.08 7.46L131.08 7.46L131.08 7.46Q131.08 8.13 130.78 8.73L130.78 8.73L130.78 8.73Q130.48 9.32 129.95 9.79L129.95 9.79L129.95 9.79Q129.42 10.26 128.70 10.58L128.70 10.58L128.70 10.58Q127.99 10.91 127.15 11.02L127.15 11.02L127.15 11.02Q127.36 11.65 127.66 12.31L127.66 12.31L127.66 12.31Q127.96 12.98 128.31 13.59L128.31 13.59L128.31 13.59Q128.66 14.21 129.04 14.73L129.04 14.73L129.04 14.73Q129.42 15.25 129.78 15.58L129.78 15.58L129.78 15.58Q129.71 15.72 129.58 15.86L129.58 15.86L129.58 15.86Q129.44 16.00 129.27 16.12L129.27 16.12L129.27 16.12Q129.09 16.24 128.90 16.32L128.90 16.32L128.90 16.32Q128.72 16.39 128.55 16.39L128.55 16.39L128.55 16.39Q128.24 16.39 127.96 16.10L127.96 16.10L127.96 16.10Q127.68 15.81 127.39 15.17L127.39 15.17L127.39 15.17Q127.11 14.53 126.79 13.52L126.79 13.52L126.79 13.52Q126.48 12.50 126.10 11.07L126.10 11.07L126.10 11.07Q125.94 11.07 125.79 11.07L125.79 11.07L125.79 11.07Q125.64 11.07 125.55 11.05L125.55 11.05L125.55 11.05Q125.45 10.99 125.34 10.85L125.34 10.85L125.34 10.85Q124.96 11.66 124.67 12.38L124.67 12.38L124.67 12.38Q124.38 13.09 124.14 13.76L124.14 13.76L124.14 13.76Q123.91 14.42 123.74 15.04L123.74 15.04L123.74 15.04Q123.56 15.67 123.44 16.31L123.44 16.31L123.44 16.31Q122.96 16.20 122.61 15.90L122.61 15.90L122.61 15.90Q122.26 15.61 121.95 15.08L121.95 15.08L121.95 15.08Q122.01 14.95 122.07 14.83L122.07 14.83L122.07 14.83Q122.14 14.71 122.23 14.50L122.23 14.50L122.23 14.50Q122.33 14.28 122.48 13.94L122.48 13.94L122.48 13.94Q122.63 13.61 122.87 13.05L122.87 13.05L122.87 13.05Q123.12 12.49 123.46 11.68L123.46 11.68L123.46 11.68Q123.80 10.86 124.29 9.70L124.29 9.70L124.29 9.70Q124.52 9.18 124.68 8.79L124.68 8.79L124.68 8.79Q124.84 8.40 124.96 8.04L124.96 8.04L124.96 8.04Q125.09 7.69 125.19 7.33L125.19 7.33L125.19 7.33Q125.30 6.97 125.41 6.51L125.41 6.51L125.41 6.51Q124.77 6.73 124.21 7.01L124.21 7.01L124.21 7.01Q123.66 7.28 123.30 7.59L123.30 7.59L123.30 7.59Q123.17 7.50 123.04 7.34L123.04 7.34L123.04 7.34Q122.91 7.17 122.79 6.96L122.79 6.96L122.79 6.96Q122.68 6.76 122.60 6.55L122.60 6.55L122.60 6.55Q122.51 6.34 122.50 6.17L122.50 6.17L122.50 6.17Q122.92 5.89 123.53 5.66L123.53 5.66L123.53 5.66Q124.14 5.42 124.82 5.24L124.82 5.24L124.82 5.24Q125.51 5.07 126.22 4.97L126.22 4.97L126.22 4.97Q126.94 4.87 127.55 4.87L127.55 4.87L127.55 4.87Q129.23 4.87 130.16 5.56L130.16 5.56L130.16 5.56Q131.08 6.26 131.08 7.46ZM127.50 6.02L127.67 6.29L127.67 6.29Q127.57 6.41 127.36 6.79L127.36 6.79L127.36 6.79Q127.15 7.17 126.87 7.69L126.87 7.69L126.87 7.69Q126.60 8.22 126.30 8.83L126.30 8.83L126.30 8.83Q126.00 9.45 125.72 10.05L125.72 10.05L125.72 10.05Q126.77 10.05 127.65 9.86L127.65 9.86L127.65 9.86Q128.53 9.66 129.18 9.30L129.18 9.30L129.18 9.30Q129.82 8.95 130.18 8.46L130.18 8.46L130.18 8.46Q130.54 7.98 130.54 7.39L130.54 7.39L130.54 7.39Q130.54 6.69 130.03 6.32L130.03 6.32L130.03 6.32Q129.53 5.95 128.48 5.95L128.48 5.95L128.48 5.95Q128.24 5.95 128.00 5.97L128.00 5.97L128.00 5.97Q127.76 5.99 127.50 6.02L127.50 6.02ZM157.70 5.74L157.70 5.74L157.70 5.74Q157.74 5.98 157.76 6.07L157.76 6.07L157.76 6.07Q157.78 6.16 157.78 6.31L157.78 6.31L157.78 6.31Q157.78 6.78 157.58 7.18L157.58 7.18L157.58 7.18Q157.37 7.57 157.02 7.74L157.02 7.74L157.02 7.74Q156.74 7.36 156.34 7.09L156.34 7.09L156.34 7.09Q155.93 6.82 155.45 6.64L155.45 6.64L155.45 6.64Q154.97 6.47 154.45 6.38L154.45 6.38L154.45 6.38Q153.93 6.30 153.44 6.30L153.44 6.30L153.44 6.30Q152.95 6.30 152.52 6.38L152.52 6.38L152.52 6.38Q152.10 6.45 151.77 6.59L151.77 6.59L151.77 6.59Q151.44 6.72 151.25 6.92L151.25 6.92L151.25 6.92Q151.06 7.11 151.06 7.36L151.06 7.36L151.06 7.36Q151.10 7.67 151.44 7.99L151.44 7.99L151.44 7.99Q151.77 8.30 152.26 8.60L152.26 8.60L152.26 8.60Q152.75 8.90 153.35 9.20L153.35 9.20L153.35 9.20Q153.94 9.49 154.52 9.76L154.52 9.76L154.52 9.76Q155.23 10.09 155.75 10.38L155.75 10.38L155.75 10.38Q156.27 10.67 156.60 11.01L156.60 11.01L156.60 11.01Q156.94 11.35 157.11 11.79L157.11 11.79L157.11 11.79Q157.28 12.22 157.28 12.84L157.28 12.84L157.28 12.84Q157.28 13.55 157.04 14.18L157.04 14.18L157.04 14.18Q156.80 14.80 156.34 15.26L156.34 15.26L156.34 15.26Q155.89 15.72 155.25 15.98L155.25 15.98L155.25 15.98Q154.60 16.24 153.80 16.24L153.80 16.24L153.80 16.24Q153.02 16.24 152.11 16.00L152.11 16.00L152.11 16.00Q151.20 15.76 150.41 15.35L150.41 15.35L150.41 15.35Q149.62 14.94 149.09 14.40L149.09 14.40L149.09 14.40Q148.57 13.86 148.57 13.26L148.57 13.26L148.57 13.26Q148.57 12.98 148.73 12.54L148.73 12.54L148.73 12.54Q148.89 12.11 149.31 11.63L149.31 11.63L149.31 11.63Q149.35 12.05 149.76 12.63L149.76 12.63L149.76 12.63Q150.18 13.20 151.00 13.69L151.00 13.69L151.00 13.69Q151.77 14.14 152.59 14.34L152.59 14.34L152.59 14.34Q153.41 14.55 154.13 14.55L154.13 14.55L154.13 14.55Q154.91 14.55 155.40 14.35L155.40 14.35L155.40 14.35Q155.89 14.15 156.17 13.88L156.17 13.88L156.17 13.88Q156.45 13.61 156.56 13.33L156.56 13.33L156.56 13.33Q156.67 13.05 156.69 12.88L156.69 12.88L156.69 12.88Q156.67 12.60 156.43 12.34L156.43 12.34L156.43 12.34Q156.18 12.08 155.77 11.84L155.77 11.84L155.77 11.84Q155.36 11.59 154.81 11.34L154.81 11.34L154.81 11.34Q154.27 11.09 153.68 10.84L153.68 10.84L153.68 10.84Q152.80 10.44 152.16 10.10L152.16 10.10L152.16 10.10Q151.52 9.76 151.11 9.40L151.11 9.40L151.11 9.40Q150.70 9.04 150.51 8.65L150.51 8.65L150.51 8.65Q150.32 8.26 150.32 7.76L150.32 7.76L150.32 7.76Q150.32 6.97 150.79 6.27L150.79 6.27L150.79 6.27Q151.27 5.57 152.17 5.21L152.17 5.21L152.17 5.21Q152.61 5.01 153.12 4.93L153.12 4.93L153.12 4.93Q153.64 4.84 154.13 4.84L154.13 4.84L154.13 4.84Q155.05 4.84 155.93 5.10L155.93 5.10L155.93 5.10Q156.81 5.35 157.70 5.74ZM171.85 4.98L171.85 4.98L171.85 4.98Q172.12 5.10 172.40 5.27L172.40 5.27L172.40 5.27Q172.68 5.45 172.91 5.63L172.91 5.63L172.91 5.63Q173.15 5.81 173.31 5.98L173.31 5.98L173.31 5.98Q173.47 6.16 173.49 6.27L173.49 6.27L173.49 6.27Q173.25 6.22 173.01 6.20L173.01 6.20L173.01 6.20Q172.77 6.17 172.58 6.17L172.58 6.17L172.58 6.17Q171.95 6.17 171.32 6.48L171.32 6.48L171.32 6.48Q170.70 6.79 170.14 7.32L170.14 7.32L170.14 7.32Q169.58 7.85 169.11 8.57L169.11 8.57L169.11 8.57Q168.63 9.28 168.29 10.09L168.29 10.09L168.29 10.09Q167.94 10.91 167.75 11.77L167.75 11.77L167.75 11.77Q167.55 12.64 167.55 13.48L167.55 13.48L167.55 13.48Q167.55 14.57 167.92 15.11L167.92 15.11L167.92 15.11Q168.28 15.64 168.98 15.64L168.98 15.64L168.98 15.64Q169.32 15.64 169.71 15.51L169.71 15.51L169.71 15.51Q170.10 15.37 170.51 15.13L170.51 15.13L170.51 15.13Q170.91 14.90 171.30 14.56L171.30 14.56L171.30 14.56Q171.70 14.22 172.03 13.82L172.03 13.82L172.03 13.82Q172.52 13.23 172.91 12.48L172.91 12.48L172.91 12.48Q173.31 11.73 173.58 10.89L173.58 10.89L173.58 10.89Q173.85 10.05 174.00 9.16L174.00 9.16L174.00 9.16Q174.15 8.27 174.15 7.42L174.15 7.42L174.15 7.42Q174.15 7.08 174.13 6.85L174.13 6.85L174.13 6.85Q174.12 6.62 174.10 6.46L174.10 6.46L174.10 6.46Q174.08 6.30 174.06 6.20L174.06 6.20L174.06 6.20Q174.05 6.10 174.03 6.03L174.03 6.03L174.03 6.03Q174.20 6.12 174.40 6.24L174.40 6.24L174.40 6.24Q174.61 6.36 174.78 6.59L174.78 6.59L174.78 6.59Q174.96 6.82 175.08 7.20L175.08 7.20L175.08 7.20Q175.20 7.57 175.20 8.18L175.20 8.18L175.20 8.18Q175.20 9.16 174.96 10.10L174.96 10.10L174.96 10.10Q174.73 11.05 174.32 11.90L174.32 11.90L174.32 11.90Q173.91 12.75 173.35 13.50L173.35 13.50L173.35 13.50Q172.79 14.24 172.14 14.80L172.14 14.80L172.14 14.80Q171.30 15.54 170.35 15.95L170.35 15.95L170.35 15.95Q169.40 16.35 168.52 16.35L168.52 16.35L168.52 16.35Q167.23 16.35 166.55 15.53L166.55 15.53L166.55 15.53Q165.87 14.71 165.87 13.12L165.87 13.12L165.87 13.12Q165.87 12.26 166.06 11.31L166.06 11.31L166.06 11.31Q166.25 10.36 166.59 9.44L166.59 9.44L166.59 9.44Q166.94 8.51 167.41 7.68L167.41 7.68L167.41 7.68Q167.89 6.85 168.45 6.21L168.45 6.21L168.45 6.21Q169.02 5.57 169.67 5.19L169.67 5.19L169.67 5.19Q170.32 4.82 171.01 4.82L171.01 4.82L171.01 4.82Q171.23 4.82 171.43 4.85L171.43 4.85L171.43 4.85Q171.63 4.89 171.85 4.98ZM187.89 5.75L187.89 5.75L187.89 5.75Q187.28 6.58 186.77 7.57L186.77 7.57L186.77 7.57Q186.27 8.57 185.91 9.61L185.91 9.61L185.91 9.61Q185.56 10.65 185.37 11.67L185.37 11.67L185.37 11.67Q185.18 12.68 185.18 13.57L185.18 13.57L185.18 13.57Q185.18 14.66 185.50 15.15L185.50 15.15L185.50 15.15Q185.82 15.64 186.61 15.64L186.61 15.64L186.61 15.64Q187.52 15.64 188.20 15.00L188.20 15.00L188.20 15.00Q188.89 14.36 189.49 13.24L189.49 13.24L189.49 13.24Q189.88 12.52 190.16 11.65L190.16 11.65L190.16 11.65Q190.44 10.78 190.62 9.86L190.62 9.86L190.62 9.86Q190.79 8.95 190.88 8.02L190.88 8.02L190.88 8.02Q190.96 7.08 190.96 6.23L190.96 6.23L190.96 6.23Q190.96 5.68 190.95 5.43L190.95 5.43L190.95 5.43Q190.93 5.18 190.90 5.03L190.90 5.03L190.90 5.03Q190.95 5.03 191.11 5.05L191.11 5.05L191.11 5.05Q191.28 5.08 191.50 5.12L191.50 5.12L191.50 5.12Q191.72 5.17 191.93 5.24L191.93 5.24L191.93 5.24Q192.15 5.31 192.30 5.39L192.30 5.39L192.30 5.39Q192.23 6.45 192.04 7.59L192.04 7.59L192.04 7.59Q191.86 8.72 191.55 9.83L191.55 9.83L191.55 9.83Q191.24 10.93 190.83 11.96L190.83 11.96L190.83 11.96Q190.43 12.98 189.92 13.79L189.92 13.79L189.92 13.79Q189.18 14.99 188.26 15.67L188.26 15.67L188.26 15.67Q187.33 16.35 186.07 16.35L186.07 16.35L186.07 16.35Q184.79 16.35 184.07 15.60L184.07 15.60L184.07 15.60Q183.36 14.85 183.36 13.33L183.36 13.33L183.36 13.33Q183.36 12.45 183.55 11.33L183.55 11.33L183.55 11.33Q183.75 10.22 184.08 9.07L184.08 9.07L184.08 9.07Q184.41 7.91 184.84 6.81L184.84 6.81L184.84 6.81Q185.28 5.71 185.75 4.84L185.75 4.84L185.75 4.84Q185.99 4.86 186.31 4.94L186.31 4.94L186.31 4.94Q186.63 5.03 186.94 5.16L186.94 5.16L186.94 5.16Q187.25 5.29 187.51 5.45L187.51 5.45L187.51 5.45Q187.77 5.61 187.89 5.75ZM204.48 14.38L204.48 14.38L204.48 14.38Q204.83 14.98 204.83 15.54L204.83 15.54L204.83 15.54Q204.83 15.67 204.81 15.77L204.81 15.77L204.81 15.77Q204.79 15.88 204.76 15.99L204.76 15.99L204.76 15.99Q204.53 15.96 204.27 15.95L204.27 15.95L204.27 15.95Q204.01 15.93 203.73 15.93L203.73 15.93L203.73 15.93Q203.39 15.93 203.05 15.95L203.05 15.95L203.05 15.95Q202.71 15.97 202.29 16.02L202.29 16.02L202.29 16.02Q201.87 16.06 201.35 16.13L201.35 16.13L201.35 16.13Q200.83 16.20 200.14 16.31L200.14 16.31L200.14 16.31Q199.82 16.20 199.50 15.87L199.50 15.87L199.50 15.87Q199.18 15.54 198.90 15.08L198.90 15.08L198.90 15.08Q199.04 14.77 199.25 14.31L199.25 14.31L199.25 14.31Q199.46 13.86 199.74 13.21L199.74 13.21L199.74 13.21Q200.02 12.56 200.36 11.68L200.36 11.68L200.36 11.68Q200.70 10.81 201.10 9.66L201.10 9.66L201.10 9.66Q201.35 8.90 201.53 8.33L201.53 8.33L201.53 8.33Q201.71 7.76 201.86 7.22L201.86 7.22L201.86 7.22Q202.01 6.68 202.15 6.09L202.15 6.09L202.15 6.09Q202.29 5.50 202.45 4.73L202.45 4.73L202.45 4.73Q203.01 4.84 203.43 5.14L203.43 5.14L203.43 5.14Q203.84 5.45 204.22 6.01L204.22 6.01L204.22 6.01Q204.11 6.19 203.92 6.59L203.92 6.59L203.92 6.59Q203.74 7 203.50 7.58L203.50 7.58L203.50 7.58Q203.25 8.16 202.96 8.90L202.96 8.90L202.96 8.90Q202.66 9.63 202.34 10.47L202.34 10.47L202.34 10.47Q202.03 11.30 201.74 12.03L201.74 12.03L201.74 12.03Q201.45 12.75 201.22 13.34L201.22 13.34L201.22 13.34Q200.98 13.93 200.84 14.35L200.84 14.35L200.84 14.35Q200.70 14.77 200.70 14.98L200.70 14.98L200.70 14.98Q200.93 14.97 201.11 14.95L201.11 14.95L201.11 14.95Q201.29 14.94 201.49 14.90L201.49 14.90L201.49 14.90Q201.68 14.87 201.91 14.82L201.91 14.82L201.91 14.82Q202.15 14.77 202.47 14.69L202.47 14.69L202.47 14.69Q202.75 14.62 202.99 14.57L202.99 14.57L202.99 14.57Q203.22 14.52 203.45 14.48L203.45 14.48L203.45 14.48Q203.69 14.45 203.93 14.43L203.93 14.43L203.93 14.43Q204.18 14.41 204.48 14.38ZM229.39 16.21L229.39 16.21L229.39 16.21Q229.36 16.23 229.33 16.23L229.33 16.23L229.33 16.23Q229.31 16.23 229.22 16.23L229.22 16.23L229.22 16.23Q229.03 16.23 228.77 16.16L228.77 16.16L228.77 16.16Q228.51 16.10 228.26 16.01L228.26 16.01L228.26 16.01Q228.02 15.92 227.84 15.81L227.84 15.81L227.84 15.81Q227.67 15.69 227.63 15.61L227.63 15.61L227.63 15.61Q227.61 15.41 227.61 15.20L227.61 15.20L227.61 15.20Q227.61 14.99 227.61 14.80L227.61 14.80L227.61 14.80Q227.61 13.23 227.84 11.52L227.84 11.52L227.84 11.52Q228.07 9.81 228.61 7.83L228.61 7.83L228.61 7.83Q228.66 7.63 228.72 7.33L228.72 7.33L228.72 7.33Q228.79 7.03 228.86 6.68L228.86 6.68L228.86 6.68Q228.52 6.94 228.06 7.53L228.06 7.53L228.06 7.53Q227.60 8.11 227.09 8.90L227.09 8.90L227.09 8.90Q226.58 9.69 226.06 10.63L226.06 10.63L226.06 10.63Q225.55 11.58 225.13 12.55L225.13 12.55L225.13 12.55Q224.71 13.52 224.41 14.48L224.41 14.48L224.41 14.48Q224.11 15.43 224.04 16.24L224.04 16.24L224.04 16.24Q223.37 16.04 223.11 15.85L223.11 15.85L223.11 15.85Q222.85 15.65 222.85 15.37L222.85 15.37L222.85 15.37Q222.85 15.12 223.01 14.66L223.01 14.66L223.01 14.66Q223.16 14.20 223.44 13.57L223.44 13.57L223.44 13.57Q223.72 12.94 224.13 12.16L224.13 12.16L224.13 12.16Q224.53 11.38 225.02 10.49L225.02 10.49L225.02 10.49Q225.58 9.46 226.12 8.57L226.12 8.57L226.12 8.57Q226.66 7.67 227.18 6.94L227.18 6.94L227.18 6.94Q227.70 6.22 228.19 5.68L228.19 5.68L228.19 5.68Q228.69 5.15 229.18 4.87L229.18 4.87L229.18 4.87Q229.38 4.87 229.70 4.97L229.70 4.97L229.70 4.97Q230.03 5.07 230.35 5.21L230.35 5.21L230.35 5.21Q230.66 5.35 230.91 5.49L230.91 5.49L230.91 5.49Q231.15 5.64 231.18 5.74L231.18 5.74L231.18 5.74Q230.99 6.13 230.72 6.92L230.72 6.92L230.72 6.92Q230.45 7.70 230.18 8.69L230.18 8.69L230.18 8.69Q229.91 9.69 229.66 10.80L229.66 10.80L229.66 10.80Q229.42 11.91 229.28 12.94L229.28 12.94L229.28 12.94Q229.60 12.17 230.03 11.33L230.03 11.33L230.03 11.33Q230.45 10.50 230.93 9.68L230.93 9.68L230.93 9.68Q231.41 8.86 231.90 8.09L231.90 8.09L231.90 8.09Q232.40 7.32 232.88 6.69L232.88 6.69L232.88 6.69Q233.35 6.05 233.76 5.57L233.76 5.57L233.76 5.57Q234.18 5.10 234.50 4.87L234.50 4.87L234.50 4.87Q234.70 4.87 235.02 4.97L235.02 4.97L235.02 4.97Q235.35 5.07 235.67 5.21L235.67 5.21L235.67 5.21Q235.98 5.35 236.23 5.49L236.23 5.49L236.23 5.49Q236.47 5.64 236.50 5.74L236.50 5.74L236.50 5.74Q236.05 6.54 235.72 7.69L235.72 7.69L235.72 7.69Q235.38 8.83 235.15 10.09L235.15 10.09L235.15 10.09Q234.92 11.35 234.80 12.59L234.80 12.59L234.80 12.59Q234.68 13.83 234.68 14.81L234.68 14.81L234.68 14.81Q234.68 15.13 234.68 15.48L234.68 15.48L234.68 15.48Q234.68 15.83 234.71 16.21L234.71 16.21L234.71 16.21Q234.51 16.21 234.24 16.16L234.24 16.16L234.24 16.16Q233.97 16.11 233.71 16.03L233.71 16.03L233.71 16.03Q233.45 15.95 233.24 15.84L233.24 15.84L233.24 15.84Q233.03 15.74 232.95 15.61L232.95 15.61L232.95 15.61Q232.93 15.41 232.93 15.20L232.93 15.20L232.93 15.20Q232.93 14.99 232.93 14.80L232.93 14.80L232.93 14.80Q232.93 13.23 233.16 11.52L233.16 11.52L233.16 11.52Q233.39 9.81 233.93 7.83L233.93 7.83L233.93 7.83Q233.98 7.63 234.05 7.29L234.05 7.29L234.05 7.29Q234.12 6.96 234.19 6.59L234.19 6.59L234.19 6.59Q233.80 6.79 233.30 7.34L233.30 7.34L233.30 7.34Q232.81 7.90 232.29 8.69L232.29 8.69L232.29 8.69Q231.78 9.48 231.29 10.44L231.29 10.44L231.29 10.44Q230.79 11.41 230.39 12.41L230.39 12.41L230.39 12.41Q229.99 13.41 229.72 14.40L229.72 14.40L229.72 14.40Q229.45 15.39 229.39 16.21ZM244.43 16.24L244.43 16.24L244.43 16.24Q243.75 16.04 243.49 15.85L243.49 15.85L243.49 15.85Q243.24 15.65 243.24 15.36L243.24 15.36L243.24 15.36Q243.24 15.13 243.36 14.73L243.36 14.73L243.36 14.73Q243.49 14.32 243.73 13.77L243.73 13.77L243.73 13.77Q243.98 13.22 244.32 12.54L244.32 12.54L244.32 12.54Q244.66 11.87 245.10 11.10L245.10 11.10L245.10 11.10Q244.73 11.09 244.45 11.08L244.45 11.08L244.45 11.08Q244.16 11.07 243.98 11.07L243.98 11.07L243.98 11.07Q244.06 10.86 244.45 10.71L244.45 10.71L244.45 10.71Q244.85 10.56 245.49 10.44L245.49 10.44L245.49 10.44Q246.04 9.53 246.66 8.71L246.66 8.71L246.66 8.71Q247.28 7.88 247.91 7.19L247.91 7.19L247.91 7.19Q248.54 6.50 249.17 5.97L249.17 5.97L249.17 5.97Q249.80 5.45 250.38 5.14L250.38 5.14L250.38 5.14Q250.39 5.04 250.40 4.97L250.40 4.97L250.40 4.97Q250.40 4.90 250.40 4.87L250.40 4.87L250.40 4.87Q250.60 4.87 250.93 4.97L250.93 4.97L250.93 4.97Q251.26 5.07 251.57 5.21L251.57 5.21L251.57 5.21Q251.89 5.35 252.13 5.49L252.13 5.49L252.13 5.49Q252.38 5.64 252.41 5.74L252.41 5.74L252.41 5.74Q251.94 6.55 251.50 8.17L251.50 8.17L251.50 8.17Q251.05 9.79 250.75 12.04L250.75 12.04L250.75 12.04Q250.68 12.60 250.63 13.31L250.63 13.31L250.63 13.31Q250.59 14.03 250.59 14.91L250.59 14.91L250.59 14.91Q250.59 15.22 250.59 15.54L250.59 15.54L250.59 15.54Q250.59 15.86 250.61 16.21L250.61 16.21L250.61 16.21Q250.59 16.23 250.56 16.23L250.56 16.23L250.56 16.23Q250.53 16.23 250.45 16.23L250.45 16.23L250.45 16.23Q250.25 16.23 249.99 16.16L249.99 16.16L249.99 16.16Q249.73 16.10 249.49 16.01L249.49 16.01L249.49 16.01Q249.24 15.92 249.07 15.81L249.07 15.81L249.07 15.81Q248.89 15.69 248.85 15.61L248.85 15.61L248.85 15.61Q248.84 15.43 248.84 15.25L248.84 15.25L248.84 15.25Q248.84 15.08 248.84 14.88L248.84 14.88L248.84 14.88Q248.84 14.01 248.90 13.12L248.90 13.12L248.90 13.12Q248.96 12.22 249.12 11.27L249.12 11.27L249.12 11.27Q248.92 11.26 248.60 11.23L248.60 11.23L248.60 11.23Q248.28 11.21 247.88 11.20L247.88 11.20L247.88 11.20Q247.48 11.19 247.02 11.16L247.02 11.16L247.02 11.16Q246.57 11.14 246.13 11.13L246.13 11.13L246.13 11.13Q245.80 11.76 245.50 12.38L245.50 12.38L245.50 12.38Q245.21 13.01 245.00 13.64L245.00 13.64L245.00 13.64Q244.76 14.31 244.61 14.98L244.61 14.98L244.61 14.98Q244.47 15.65 244.43 16.24ZM249.83 7.83L249.83 7.83L249.83 7.83Q249.89 7.63 249.96 7.29L249.96 7.29L249.96 7.29Q250.04 6.94 250.11 6.57L250.11 6.57L250.11 6.57Q249.76 6.69 249.33 7.03L249.33 7.03L249.33 7.03Q248.91 7.36 248.45 7.86L248.45 7.86L248.45 7.86Q248.00 8.36 247.53 8.98L247.53 8.98L247.53 8.98Q247.06 9.60 246.62 10.30L246.62 10.30L246.62 10.30Q247.80 10.21 249.30 10.18L249.30 10.18L249.30 10.18Q249.41 9.59 249.54 9.01L249.54 9.01L249.54 9.01Q249.68 8.43 249.83 7.83ZM261.98 6.69L261.98 6.69L261.98 6.69Q261.42 6.69 261.12 6.38L261.12 6.38L261.12 6.38Q260.82 6.06 260.82 5.61L260.82 5.61L260.82 5.61Q260.82 5.50 260.85 5.35L260.85 5.35L260.85 5.35Q260.89 5.19 260.95 5.08L260.95 5.08L260.95 5.08Q261.13 5.17 261.48 5.20L261.48 5.20L261.48 5.20Q261.84 5.24 262.32 5.24L262.32 5.24L262.32 5.24Q263.03 5.24 263.93 5.17L263.93 5.17L263.93 5.17Q264.84 5.11 265.66 5.04L265.66 5.04L265.66 5.04Q266.49 4.97 267.12 4.91L267.12 4.91L267.12 4.91Q267.75 4.84 267.93 4.84L267.93 4.84L267.93 4.84Q268.45 4.84 268.68 5.23L268.68 5.23L268.68 5.23Q268.91 5.61 269.02 6.26L269.02 6.26L269.02 6.26Q268.66 6.23 268.30 6.21L268.30 6.21L268.30 6.21Q267.95 6.19 267.69 6.19L267.69 6.19L267.69 6.19Q267.25 6.19 266.79 6.22L266.79 6.22L266.79 6.22Q266.34 6.24 265.87 6.30L265.87 6.30L265.87 6.30Q265.68 6.71 265.44 7.26L265.44 7.26L265.44 7.26Q265.20 7.81 264.97 8.41L264.97 8.41L264.97 8.41Q264.74 9.02 264.53 9.61L264.53 9.61L264.53 9.61Q264.32 10.21 264.17 10.68L264.17 10.68L264.17 10.68Q263.86 11.61 263.63 12.39L263.63 12.39L263.63 12.39Q263.40 13.17 263.22 13.85L263.22 13.85L263.22 13.85Q263.05 14.53 262.92 15.15L262.92 15.15L262.92 15.15Q262.79 15.76 262.70 16.35L262.70 16.35L262.70 16.35Q261.76 16.21 261.13 15.18L261.13 15.18L261.13 15.18Q261.24 14.74 261.40 14.23L261.40 14.23L261.40 14.23Q261.56 13.72 261.78 13.07L261.78 13.07L261.78 13.07Q262.00 12.42 262.29 11.59L262.29 11.59L262.29 11.59Q262.58 10.77 262.96 9.72L262.96 9.72L262.96 9.72Q263.10 9.32 263.26 8.90L263.26 8.90L263.26 8.90Q263.41 8.47 263.56 8.05L263.56 8.05L263.56 8.05Q263.70 7.63 263.82 7.24L263.82 7.24L263.82 7.24Q263.94 6.85 264.03 6.52L264.03 6.52L264.03 6.52Q263.44 6.59 262.91 6.64L262.91 6.64L262.91 6.64Q262.39 6.69 261.98 6.69ZM280.22 9.21L280.22 9.21L280.22 9.21Q280.69 9.21 280.94 9.46L280.94 9.46L280.94 9.46Q281.20 9.72 281.20 10.16L281.20 10.16L281.20 10.16Q281.20 10.28 281.18 10.39L281.18 10.39L281.18 10.39Q281.16 10.51 281.13 10.60L281.13 10.60L281.13 10.60Q280.95 10.57 280.73 10.55L280.73 10.55L280.73 10.55Q280.50 10.53 280.20 10.53L280.20 10.53L280.20 10.53Q279.59 10.53 278.98 10.63L278.98 10.63L278.98 10.63Q278.36 10.74 277.80 10.81L277.80 10.81L277.80 10.81Q277.48 11.55 277.21 12.24L277.21 12.24L277.21 12.24Q276.95 12.94 276.76 13.51L276.76 13.51L276.76 13.51Q276.57 14.08 276.46 14.50L276.46 14.50L276.46 14.50Q276.36 14.92 276.35 15.13L276.35 15.13L276.35 15.13Q277.48 14.90 278.63 14.73L278.63 14.73L278.63 14.73Q279.79 14.56 281.06 14.48L281.06 14.48L281.06 14.48Q281.22 14.71 281.32 14.99L281.32 14.99L281.32 14.99Q281.43 15.27 281.43 15.60L281.43 15.60L281.43 15.60Q281.43 15.68 281.43 15.78L281.43 15.78L281.43 15.78Q281.43 15.88 281.40 15.97L281.40 15.97L281.40 15.97Q281.01 15.96 280.57 15.95L280.57 15.95L280.57 15.95Q280.14 15.95 279.44 15.95L279.44 15.95L279.44 15.95Q278.98 15.95 278.56 15.97L278.56 15.97L278.56 15.97Q278.15 15.99 277.73 16.03L277.73 16.03L277.73 16.03Q277.31 16.07 276.84 16.14L276.84 16.14L276.84 16.14Q276.37 16.21 275.79 16.31L275.79 16.31L275.79 16.31Q275.14 16.06 274.54 15.08L274.54 15.08L274.54 15.08Q274.78 14.57 275.20 13.54L275.20 13.54L275.20 13.54Q275.63 12.52 276.29 10.79L276.29 10.79L276.29 10.79Q275.66 10.60 275.46 10.09L275.46 10.09L275.46 10.09Q275.53 10.02 275.87 9.92L275.87 9.92L275.87 9.92Q276.21 9.81 276.70 9.70L276.70 9.70L276.70 9.70Q276.91 9.16 277.05 8.75L277.05 8.75L277.05 8.75Q277.20 8.34 277.31 7.99L277.31 7.99L277.31 7.99Q277.42 7.63 277.51 7.29L277.51 7.29L277.51 7.29Q277.61 6.94 277.69 6.54L277.69 6.54L277.69 6.54Q277.20 6.51 276.92 6.27L276.92 6.27L276.92 6.27Q276.64 6.02 276.64 5.63L276.64 5.63L276.64 5.63Q276.64 5.52 276.67 5.36L276.67 5.36L276.67 5.36Q276.71 5.21 276.75 5.10L276.75 5.10L276.75 5.10Q277.03 5.14 277.29 5.15L277.29 5.15L277.29 5.15Q277.55 5.17 277.97 5.17L277.97 5.17L277.97 5.17Q278.85 5.17 279.62 5.12L279.62 5.12L279.62 5.12Q280.39 5.07 281.01 5.01L281.01 5.01L281.01 5.01Q281.64 4.96 282.09 4.91L282.09 4.91L282.09 4.91Q282.53 4.86 282.77 4.86L282.77 4.86L282.77 4.86Q283.09 4.86 283.35 5.19L283.35 5.19L283.35 5.19Q283.60 5.53 283.72 6.15L283.72 6.15L283.72 6.15Q283.29 6.10 283.02 6.09L283.02 6.09L283.02 6.09Q282.74 6.08 282.53 6.08L282.53 6.08L282.53 6.08Q281.76 6.08 281.13 6.15L281.13 6.15L281.13 6.15Q280.49 6.23 279.90 6.31L279.90 6.31L279.90 6.31Q279.82 6.44 279.71 6.64L279.71 6.64L279.71 6.64Q279.61 6.83 279.44 7.18L279.44 7.18L279.44 7.18Q279.27 7.53 279.03 8.06L279.03 8.06L279.03 8.06Q278.78 8.60 278.43 9.39L278.43 9.39L278.43 9.39Q278.96 9.31 279.43 9.26L279.43 9.26L279.43 9.26Q279.90 9.21 280.22 9.21Z"></path></g></svg>